<?xml version="1.0" encoding="utf-8"?>
<!-- Generator: Adobe Illustrator 25.0.1, SVG Export Plug-In . SVG Version: 6.00 Build 0)  -->
<svg version="1.1" xmlns="http://www.w3.org/2000/svg" xmlns:xlink="http://www.w3.org/1999/xlink" x="0px" y="0px"
	 viewBox="0 0 266.74 266.74" style="enable-background:new 0 0 266.74 266.74;" xml:space="preserve">
<style type="text/css">
	.st0{fill:#FFFFFF;}
</style>
<g id="Capa_1">
	<g>
		<path d="M222.74,133.41c0,49.25-40.13,89.36-89.4,89.34c-49.26-0.02-89.37-40.16-89.33-89.42c0.04-49.24,40.21-89.31,89.49-89.25
			C182.68,44.14,222.73,84.23,222.74,133.41z M145.74,133.49c-0.99,0.69-1.59,0.98-2.04,1.43c-9.8,9.77-19.58,19.55-29.36,29.34
			c-0.61,0.62-1.23,1.24-1.76,1.93c-2.67,3.48-1.72,8.48,2.02,10.76c3.24,1.97,6.72,1.35,9.89-1.82
			c11.85-11.83,23.69-23.67,35.53-35.51c4.19-4.18,4.2-8.24,0.03-12.41c-11.8-11.8-23.6-23.59-35.41-35.38
			c-0.49-0.49-1.01-0.97-1.55-1.4c-4.31-3.4-10.35-1.39-11.78,3.91c-0.86,3.18,0.42,5.64,2.61,7.82
			c9.88,9.86,19.74,19.73,29.62,29.58C144.04,132.25,144.64,132.63,145.74,133.49z"/>
		<path class="st0" d="M145.74,133.49c-1.1-0.86-1.7-1.24-2.19-1.73c-9.88-9.85-19.74-19.73-29.62-29.58
			c-2.19-2.18-3.47-4.64-2.61-7.82c1.43-5.31,7.47-7.32,11.78-3.91c0.55,0.43,1.06,0.91,1.55,1.4
			c11.81,11.79,23.61,23.58,35.41,35.38c4.17,4.17,4.16,8.22-0.03,12.41c-11.84,11.84-23.68,23.68-35.53,35.51
			c-3.17,3.17-6.65,3.79-9.89,1.82c-3.74-2.28-4.7-7.28-2.02-10.76c0.53-0.69,1.14-1.32,1.76-1.93
			c9.78-9.79,19.57-19.57,29.36-29.34C144.15,134.47,144.75,134.18,145.74,133.49z"/>
	</g>
</g>
<g id="Capa_2">
</g>
</svg>
