<svg id="Capa_1" data-name="Capa 1" xmlns="http://www.w3.org/2000/svg" viewBox="0 0 507.5 121.83"><defs><style>.cls-1{fill:#fff;}.cls-2{fill:none;}</style></defs><path d="M443.7,15.42H59.58a45.64,45.64,0,0,0,0,91.27H443.7a45.64,45.64,0,1,0,0-91.27Z"/><path class="cls-1" d="M73.14,71.65l-4.09-5.9H64.54v5.9H59.63V50.45h9.18a11.85,11.85,0,0,1,4.89.94A7,7,0,0,1,78,58.14a6.89,6.89,0,0,1-4.36,6.7l4.76,6.81ZM71.9,55.4a5.19,5.19,0,0,0-3.36-.95h-4v7.39h4a5.14,5.14,0,0,0,3.36-1,3.83,3.83,0,0,0,0-5.47Z"/><path class="cls-1" d="M98.31,67.71v3.94H81.89V50.45h16v3.94H86.77V59h9.84v3.82H86.77v4.9Z"/><path class="cls-1" d="M116.48,60.72H121v8.6a12.94,12.94,0,0,1-4,2,15.64,15.64,0,0,1-4.57.69,12.4,12.4,0,0,1-5.94-1.4,10.44,10.44,0,0,1-4.13-3.91,11.39,11.39,0,0,1,0-11.3,10.5,10.5,0,0,1,4.16-3.9,12.65,12.65,0,0,1,6-1.41,13.07,13.07,0,0,1,5.06.94,10,10,0,0,1,3.81,2.72l-3.15,2.91a7.25,7.25,0,0,0-5.48-2.39,7.42,7.42,0,0,0-3.6.85,6.09,6.09,0,0,0-2.46,2.39,7.58,7.58,0,0,0,0,7.05A6.21,6.21,0,0,0,109.1,67a7.19,7.19,0,0,0,3.56.87,8.07,8.07,0,0,0,3.82-.91Z"/><path class="cls-1" d="M125.5,50.45h4.91v21.2H125.5Z"/><path class="cls-1" d="M137.54,71.33a11.27,11.27,0,0,1-3.78-1.77l1.67-3.69a11.4,11.4,0,0,0,3.24,1.6,12,12,0,0,0,3.76.61,6.06,6.06,0,0,0,3.09-.62,1.9,1.9,0,0,0,1-1.65,1.56,1.56,0,0,0-.6-1.26,4.4,4.4,0,0,0-1.51-.8c-.61-.21-1.45-.43-2.5-.67a35,35,0,0,1-4-1.15,6.48,6.48,0,0,1-2.65-1.85,5,5,0,0,1-1.1-3.39,5.89,5.89,0,0,1,1-3.35,6.69,6.69,0,0,1,3-2.37,12.2,12.2,0,0,1,4.92-.88,16.41,16.41,0,0,1,4,.48A11.81,11.81,0,0,1,150.48,52L149,55.69A11.85,11.85,0,0,0,143.09,54a5.54,5.54,0,0,0-3,.67,2,2,0,0,0-1,1.76,1.7,1.7,0,0,0,1.13,1.62,17.87,17.87,0,0,0,3.47,1,36.9,36.9,0,0,1,4,1.15,6.67,6.67,0,0,1,2.66,1.82,4.91,4.91,0,0,1,1.1,3.36,5.85,5.85,0,0,1-1,3.32,6.85,6.85,0,0,1-3,2.38,12.46,12.46,0,0,1-4.93.87A17.09,17.09,0,0,1,137.54,71.33Z"/><path class="cls-1" d="M158.84,54.45h-6.78v-4h18.47v4h-6.78v17.2h-4.91Z"/><path class="cls-1" d="M189.58,67.71v3.94H173.17V50.45h16v3.94H178V59h9.84v3.82H178v4.9Z"/><path class="cls-1" d="M207,71.65l-4.08-5.9h-4.52v5.9h-4.9V50.45h9.17a11.85,11.85,0,0,1,4.89.94,7,7,0,0,1,4.32,6.75,6.92,6.92,0,0,1-4.36,6.7l4.75,6.81ZM205.75,55.4a5.19,5.19,0,0,0-3.36-.95h-4v7.39h4a5.14,5.14,0,0,0,3.36-1,3.83,3.83,0,0,0,0-5.47Z"/><path class="cls-1" d="M228.71,54.45h-6.79v-4H240.4v4h-6.79v17.2h-4.9Z"/><path class="cls-1" d="M247,70.59a10.56,10.56,0,0,1-4.14-3.92A10.82,10.82,0,0,1,247,51.51a12.4,12.4,0,0,1,6-1.42,12.24,12.24,0,0,1,5.94,1.42,10.81,10.81,0,0,1,0,19.08A12.24,12.24,0,0,1,253,72,12.4,12.4,0,0,1,247,70.59ZM256.39,67a6.1,6.1,0,0,0,2.37-2.41,7.52,7.52,0,0,0,0-7,6.17,6.17,0,0,0-2.37-2.41,7.13,7.13,0,0,0-6.79,0,6.17,6.17,0,0,0-2.37,2.41,7.52,7.52,0,0,0,0,7A6.1,6.1,0,0,0,249.6,67a7.06,7.06,0,0,0,6.79,0Z"/><path class="cls-1" d="M308.9,50.45,302,71.65H296.7L292,57.3l-4.81,14.35H282l-7-21.2h5.09l4.79,14.9,5-14.9h4.55l4.84,15,4.94-15Z"/><path class="cls-1" d="M331.07,50.45v21.2h-4.9V63h-9.63v8.69h-4.91V50.45h4.91v8.36h9.63V50.45Z"/><path class="cls-1" d="M336.1,50.45H341v21.2h-4.9Z"/><path class="cls-1" d="M350.42,54.45h-6.78v-4h18.47v4h-6.78v17.2h-4.91Z"/><path class="cls-1" d="M381.16,67.71v3.94H364.75V50.45h16v3.94H369.62V59h9.84v3.82h-9.84v4.9Z"/><path class="cls-1" d="M385.07,50.45H390v17.2H400.6v4H385.07Z"/><path class="cls-1" d="M403.36,50.45h4.9v21.2h-4.9Z"/><path class="cls-1" d="M415.39,71.33a11.31,11.31,0,0,1-3.77-1.77l1.67-3.69a11.4,11.4,0,0,0,3.24,1.6,12,12,0,0,0,3.75.61,6,6,0,0,0,3.09-.62,1.88,1.88,0,0,0,1-1.65,1.55,1.55,0,0,0-.59-1.26,4.49,4.49,0,0,0-1.51-.8c-.62-.21-1.45-.43-2.5-.67a35,35,0,0,1-4-1.15,6.42,6.42,0,0,1-2.65-1.85,5,5,0,0,1-1.1-3.39,5.89,5.89,0,0,1,1-3.35,6.64,6.64,0,0,1,3-2.37,12.2,12.2,0,0,1,4.92-.88,16.47,16.47,0,0,1,4,.48A11.81,11.81,0,0,1,428.34,52l-1.51,3.73A11.85,11.85,0,0,0,421,54a5.52,5.52,0,0,0-3,.67,2,2,0,0,0-1,1.76,1.71,1.71,0,0,0,1.14,1.62,17.87,17.87,0,0,0,3.47,1,36.9,36.9,0,0,1,4,1.15,6.57,6.57,0,0,1,2.65,1.82,4.86,4.86,0,0,1,1.11,3.36,5.85,5.85,0,0,1-1,3.32,6.9,6.9,0,0,1-3.05,2.38,12.5,12.5,0,0,1-4.93.87A17.21,17.21,0,0,1,415.39,71.33Z"/><path class="cls-1" d="M436.7,54.45h-6.78v-4h18.47v4h-6.78v17.2H436.7Z"/><rect class="cls-2" width="507.5" height="121.83"/></svg>