<?xml version="1.0" encoding="utf-8"?>
<!-- Generator: Adobe Illustrator 26.2.1, SVG Export Plug-In . SVG Version: 6.00 Build 0)  -->
<svg version="1.1" id="Layer_1" xmlns="http://www.w3.org/2000/svg" xmlns:xlink="http://www.w3.org/1999/xlink" x="0px" y="0px"
	 viewBox="0 0 350 280" style="enable-background:new 0 0 350 280;" xml:space="preserve">
<style type="text/css">
	.st0{fill:#1D1D1B;}
	.st1{fill:#0FFF50;}
</style>
<g>
	<g>
		<polygon class="st0" points="280.3,99.36 280.3,116.88 284.52,116.88 284.52,95.15 262.78,95.15 262.78,99.36 		"/>
		<g>
			<g>
				<polygon class="st1" points="280.3,123.97 280.3,180.22 262.78,180.22 262.78,184.44 284.52,184.44 284.52,123.97 				"/>
				<polygon class="st1" points="195.22,152.75 199.44,152.75 199.44,99.36 255.69,99.36 255.69,95.15 195.22,95.15 				"/>
			</g>
		</g>
	</g>
	<g>
		<path class="st0" d="M64.52,171.28v-0.07c0-6.77,5.07-12.31,12.27-12.31c4.39,0,7.04,1.53,9.31,3.71l-2.69,3.09
			c-1.9-1.77-3.94-2.96-6.66-2.96c-4.52,0-7.85,3.74-7.85,8.4v0.07c0,4.66,3.3,8.43,7.85,8.43c2.92,0,4.79-1.16,6.83-3.06l2.69,2.72
			c-2.48,2.58-5.2,4.22-9.66,4.22C69.69,183.51,64.52,178.11,64.52,171.28z"/>
		<path class="st0" d="M108.31,173.01v-13.7h4.18v13.53c0,4.42,2.28,6.76,6.02,6.76c3.71,0,5.98-2.21,5.98-6.59v-13.7h4.18v13.5
			c0,7.11-4.01,10.67-10.23,10.67C112.26,183.48,108.31,179.91,108.31,173.01z"/>
		<path class="st0" d="M152.45,159.31h10.67c2.72,0,4.86,0.75,6.22,2.11c1.05,1.05,1.6,2.35,1.6,3.94v0.07c0,2.86-1.63,4.38-3.4,5.3
			c2.79,0.95,4.73,2.55,4.73,5.78v0.07c0,4.25-3.5,6.53-8.81,6.53h-11.02V159.31z M166.76,166.04c0-1.87-1.5-3.03-4.18-3.03h-6.02
			v6.32h5.71c2.69,0,4.49-1.05,4.49-3.23V166.04z M163.19,172.87h-6.63v6.53h6.94c2.86,0,4.59-1.12,4.59-3.26v-0.07
			C168.09,174.06,166.49,172.87,163.19,172.87z"/>
		<path class="st0" d="M195.25,159.31h4.18v23.8h-4.18V159.31z"/>
		<path class="st0" d="M222.76,171.28v-0.07c0-6.77,5.07-12.31,12.27-12.31c4.39,0,7.04,1.53,9.32,3.71l-2.69,3.09
			c-1.9-1.77-3.94-2.96-6.66-2.96c-4.52,0-7.85,3.74-7.85,8.4v0.07c0,4.66,3.3,8.43,7.85,8.43c2.92,0,4.79-1.16,6.83-3.06l2.69,2.72
			c-2.48,2.58-5.2,4.22-9.66,4.22C227.92,183.51,222.76,178.11,222.76,171.28z"/>
	</g>
</g>
</svg>
