<svg xmlns="http://www.w3.org/2000/svg" viewBox="0 0 717.4 1386.51"><defs><style>.cls-1{fill:none;stroke:#00ff16;stroke-miterlimit:10;stroke-width:6px;}.cls-2{font-size:36px;font-family:Montserrat-Bold, Montserrat;font-weight:700;}.cls-2,.cls-25{fill:#fff;}.cls-13,.cls-2{letter-spacing:-0.02em;}.cls-3{letter-spacing:-0.02em;}.cls-4{letter-spacing:-0.02em;}.cls-5{letter-spacing:-0.03em;}.cls-6{letter-spacing:-0.03em;}.cls-7{letter-spacing:-0.03em;}.cls-8{letter-spacing:-0.01em;}.cls-9{letter-spacing:-0.03em;}.cls-10{letter-spacing:-0.04em;}.cls-11{letter-spacing:-0.03em;}.cls-12{letter-spacing:-0.04em;}.cls-14{letter-spacing:-0.03em;}.cls-15{letter-spacing:-0.04em;}.cls-16{letter-spacing:-0.08em;}.cls-17{letter-spacing:-0.03em;}.cls-18{letter-spacing:-0.04em;}.cls-19{letter-spacing:-0.04em;}.cls-20{letter-spacing:-0.04em;}.cls-21{letter-spacing:-0.03em;}.cls-22{letter-spacing:-0.04em;}.cls-23{letter-spacing:-0.04em;}.cls-24{letter-spacing:-0.04em;}</style></defs><g id="Capa_2" data-name="Capa 2"><g id="Capa_1-2" data-name="Capa 1"><line class="cls-1" x1="360.77" x2="360.82" y2="1210.27"/><text class="cls-2" transform="translate(35.96 116.93)">An<tspan class="cls-3" x="50.65" y="0">n</tspan><tspan x="74.84" y="0">ou</tspan><tspan class="cls-4" x="121.35" y="0">n</tspan><tspan class="cls-5" x="145.55" y="0">c</tspan><tspan class="cls-6" x="165.67" y="0">e</tspan><tspan class="cls-4" x="187.49" y="0">m</tspan><tspan class="cls-6" x="224.57" y="0">ent of t</tspan><tspan class="cls-3" x="354.17" y="0">h</tspan><tspan class="cls-6" x="378.36" y="0">e fi</tspan><tspan class="cls-7" x="436.21" y="0">r</tspan><tspan class="cls-6" x="450.75" y="0">st a</tspan><tspan class="cls-8" x="514.33" y="0">r</tspan><tspan class="cls-9" x="529.48" y="0">t</tspan><tspan class="cls-10" x="543.88" y="0">w</tspan><tspan class="cls-6" x="576.17" y="0">o</tspan><tspan class="cls-11" x="598.85" y="0">r</tspan><tspan class="cls-6" x="613.33" y="0">k </tspan><tspan x="318.09" y="60"> </tspan><tspan class="cls-6"><tspan x="-2.72" y="120">Whi</tspan><tspan class="cls-12" x="72.16" y="120">t</tspan><tspan class="cls-13" x="86.31" y="120">elist application opens. Dis</tspan><tspan class="cls-5" x="567.08" y="120">c</tspan><tspan x="587.21" y="120">o</tspan><tspan class="cls-14" x="609.89" y="120">r</tspan><tspan class="cls-13" x="624.18" y="120">d</tspan><tspan x="144.32" y="180">a</tspan><tspan class="cls-3" x="165.63" y="180">n</tspan><tspan class="cls-13" x="189.83" y="180">d </tspan><tspan class="cls-10" x="223.13" y="180">w</tspan><tspan x="255.42" y="180">ebsi</tspan><tspan class="cls-15" x="329.32" y="180">t</tspan><tspan x="343.47" y="180">e go li</tspan><tspan class="cls-10" x="450.71" y="180">v</tspan><tspan x="470.8" y="180">e.</tspan></tspan><tspan x="318.09" y="240"> </tspan><tspan class="cls-9"><tspan x="76.9" y="300">F</tspan><tspan class="cls-6" x="98.64" y="300">i</tspan><tspan class="cls-7" x="108.58" y="300">r</tspan><tspan class="cls-13" x="123.12" y="300">st d</tspan><tspan class="cls-14" x="189.39" y="300">r</tspan><tspan class="cls-6" x="203.69" y="300">op: an A</tspan><tspan class="cls-3" x="349.38" y="300">n</tspan><tspan class="cls-13" x="373.57" y="300">dy </tspan><tspan class="cls-16" x="427.49" y="300">W</tspan><tspan class="cls-6" x="466.48" y="300">a</tspan><tspan class="cls-17" x="487.79" y="300">r</tspan><tspan class="cls-3" x="502.27" y="300">h</tspan><tspan class="cls-6" x="526.46" y="300">ol!</tspan></tspan><tspan x="318.09" y="360"> </tspan><tspan class="cls-18"><tspan x="19.94" y="420">C</tspan><tspan class="cls-6" x="44.75" y="420">ommuni</tspan><tspan class="cls-19" x="198.9" y="420">t</tspan><tspan class="cls-13" x="213.3" y="420">y </tspan><tspan class="cls-9" x="243.21" y="420">e</tspan><tspan class="cls-10" x="264.67" y="420">v</tspan><tspan class="cls-6" x="284.76" y="420">ents &amp; </tspan><tspan class="cls-20" x="407.41" y="420">e</tspan><tspan class="cls-6" x="428.68" y="420">xpe</tspan><tspan class="cls-11" x="494.96" y="420">r</tspan><tspan class="cls-6" x="509.43" y="420">ie</tspan><tspan class="cls-3" x="541.18" y="420">n</tspan><tspan class="cls-5" x="565.37" y="420">c</tspan><tspan class="cls-6" x="585.5" y="420">es</tspan></tspan><tspan x="136.35" y="480">sta</tspan><tspan class="cls-8" x="190.64" y="480">r</tspan><tspan class="cls-6" x="205.79" y="480">t (</tspan><tspan class="cls-15" x="241.79" y="480">t</tspan><tspan class="cls-6" x="255.94" y="480">o be </tspan><tspan class="cls-21" x="342.95" y="480">r</tspan><tspan class="cls-9" x="357.24" y="480">e</tspan><tspan class="cls-10" x="378.7" y="480">ve</tspan><tspan class="cls-6" x="420.06" y="480">aled)</tspan><tspan x="318.09" y="540"> </tspan><tspan class="cls-5"><tspan x="7.87" y="600">E</tspan><tspan class="cls-6" x="30.87" y="600">xhibition </tspan><tspan class="cls-15" x="199.81" y="600">t</tspan><tspan class="cls-6" x="213.96" y="600">ou</tspan><tspan class="cls-21" x="260.47" y="600">r</tspan><tspan class="cls-13" x="274.77" y="600">- our a</tspan><tspan class="cls-8" x="388.78" y="600">r</tspan><tspan class="cls-19" x="403.93" y="600">t</tspan><tspan class="cls-10" x="418.33" y="600">w</tspan><tspan class="cls-13" x="450.63" y="600">o</tspan><tspan class="cls-11" x="473.31" y="600">r</tspan><tspan class="cls-6" x="487.78" y="600">k will be</tspan></tspan><tspan class="cls-22"><tspan x="75.2" y="660">w</tspan><tspan class="cls-6" x="107.39" y="660">aiti</tspan><tspan class="cls-4" x="163.33" y="660">n</tspan><tspan class="cls-6" x="187.52" y="660">g </tspan><tspan class="cls-5" x="221.11" y="660">f</tspan><tspan class="cls-6" x="233.89" y="660">or </tspan><tspan class="cls-10" x="280.47" y="660">y</tspan><tspan class="cls-6" x="300.56" y="660">ou </tspan><tspan class="cls-15" x="356.36" y="660">t</tspan><tspan class="cls-6" x="370.51" y="660">o go s</tspan><tspan class="cls-9" x="476.96" y="660">a</tspan><tspan class="cls-13" x="497.91" y="660">y hi.</tspan></tspan><tspan x="318.09" y="720"> </tspan><tspan x="-23.74" y="780">An</tspan><tspan class="cls-3" x="26.91" y="780">n</tspan><tspan x="51.1" y="780">ou</tspan><tspan class="cls-4" x="97.61" y="780">n</tspan><tspan class="cls-5" x="121.8" y="780">c</tspan><tspan class="cls-6" x="141.93" y="780">e</tspan><tspan class="cls-4" x="163.74" y="780">m</tspan><tspan class="cls-6" x="200.82" y="780">ent of t</tspan><tspan class="cls-3" x="330.42" y="780">h</tspan><tspan class="cls-6" x="354.61" y="780">e se</tspan><tspan class="cls-5" x="425.75" y="780">c</tspan><tspan class="cls-6" x="445.87" y="780">o</tspan><tspan class="cls-4" x="468.55" y="780">n</tspan><tspan x="492.75" y="780">d a</tspan><tspan class="cls-8" x="547.36" y="780">r</tspan><tspan class="cls-9" x="562.51" y="780">t</tspan><tspan class="cls-10" x="576.91" y="780">w</tspan><tspan class="cls-6" x="609.2" y="780">o</tspan><tspan class="cls-11" x="631.88" y="780">r</tspan><tspan class="cls-6" x="646.36" y="780">k</tspan><tspan x="-7.7" y="840">(special </tspan><tspan class="cls-21" x="139.07" y="840">r</tspan><tspan class="cls-9" x="153.36" y="840">e</tspan><tspan class="cls-22" x="174.81" y="840">w</tspan><tspan class="cls-6" x="207" y="840">a</tspan><tspan class="cls-21" x="228.31" y="840">r</tspan><tspan x="242.6" y="840">ds </tspan><tspan class="cls-5" x="294.12" y="840">f</tspan><tspan class="cls-6" x="306.9" y="840">or cu</tspan><tspan class="cls-11" x="397.69" y="840">r</tspan><tspan class="cls-21" x="412.16" y="840">r</tspan><tspan x="426.45" y="840">ent </tspan><tspan class="cls-3" x="496.29" y="840">h</tspan><tspan class="cls-6" x="520.48" y="840">olde</tspan><tspan class="cls-7" x="598.93" y="840">r</tspan><tspan x="613.47" y="840">s!)</tspan><tspan x="318.09" y="900"> </tspan><tspan class="cls-6"><tspan x="29.65" y="960">Ma</tspan><tspan class="cls-9" x="84.44" y="960">n</tspan><tspan class="cls-13" x="108.05" y="960">y </tspan><tspan class="cls-4" x="137.97" y="960">m</tspan><tspan x="175.05" y="960">o</tspan><tspan class="cls-14" x="197.73" y="960">r</tspan><tspan x="212.02" y="960">e amazi</tspan><tspan class="cls-3" x="351.19" y="960">n</tspan><tspan class="cls-13" x="375.39" y="960">g a</tspan><tspan class="cls-8" x="430.29" y="960">r</tspan><tspan class="cls-9" x="445.44" y="960">t</tspan><tspan class="cls-20" x="459.84" y="960">w</tspan><tspan class="cls-13" x="492.13" y="960">o</tspan><tspan class="cls-11" x="514.81" y="960">r</tspan><tspan class="cls-23" x="529.29" y="960">k</tspan><tspan class="cls-13" x="551.5" y="960">s </tspan><tspan class="cls-12" x="579" y="960">t</tspan><tspan x="593.15" y="960">o</tspan><tspan x="187.88" y="1020">be an</tspan><tspan class="cls-4" x="288.21" y="1020">n</tspan><tspan x="312.4" y="1020">ou</tspan><tspan class="cls-3" x="358.92" y="1020">n</tspan><tspan class="cls-5" x="383.11" y="1020">c</tspan><tspan x="403.23" y="1020">ed.</tspan></tspan><tspan x="318.09" y="1080"> </tspan><tspan class="cls-6"><tspan x="-21.46" y="1140">An</tspan><tspan class="cls-3" x="29.2" y="1140">n</tspan><tspan class="cls-13" x="53.39" y="1140">ou</tspan><tspan class="cls-3" x="99.9" y="1140">n</tspan><tspan class="cls-5" x="124.09" y="1140">c</tspan><tspan x="144.21" y="1140">e</tspan><tspan class="cls-4" x="166.03" y="1140">m</tspan><tspan x="203.11" y="1140">ent of t</tspan><tspan class="cls-3" x="332.71" y="1140">h</tspan><tspan x="356.9" y="1140">e </tspan><tspan class="cls-24" x="388" y="1140">C</tspan><tspan class="cls-13" x="412.99" y="1140">ubic Museum,</tspan><tspan x="-35.96" y="1200">t</tspan><tspan class="cls-3" x="-21.2" y="1200">h</tspan><tspan class="cls-13" x="2.99" y="1200">e </tspan><tspan class="cls-10" x="34.09" y="1200">w</tspan><tspan class="cls-13" x="66.38" y="1200">o</tspan><tspan class="cls-11" x="89.06" y="1200">r</tspan><tspan x="103.54" y="1200">ld&apos;s fi</tspan><tspan class="cls-7" x="199.11" y="1200">r</tspan><tspan class="cls-13" x="213.66" y="1200">st de</tspan><tspan class="cls-5" x="301.75" y="1200">c</tspan><tspan x="321.87" y="1200">ent</tspan><tspan class="cls-5" x="382.42" y="1200">r</tspan><tspan x="396.79" y="1200">ali</tspan><tspan class="cls-5" x="437.97" y="1200">z</tspan><tspan class="cls-13" x="456.37" y="1200">ed museum.</tspan></tspan></text><path class="cls-25" d="M352.9,62.73c2.16,0,3.54-.29,4.14-.88s.91-1.7.91-3.34V42.18a5,5,0,0,0-.36-2.24,1.38,1.38,0,0,0-1.33-.66,6,6,0,0,0-1.6.35q-.68.21-1.86.66V39.22l10.7-4.62h.75V58.75A4.83,4.83,0,0,0,365,61.9c.5.55,1.77.83,3.81.83v1H352.9Z"/><path class="cls-25" d="M348.66,177.85a127.91,127.91,0,0,0,8.71-10.08q3.11-4.29,3.1-7.6a6.25,6.25,0,0,0-1.19-3.67,4.23,4.23,0,0,0-3.71-1.71,5,5,0,0,0-3.72,1.54,7.41,7.41,0,0,0-1.45,2.24h-1.15a13.86,13.86,0,0,1,3.84-6.45,8.32,8.32,0,0,1,5.52-2.09,8,8,0,0,1,5.28,2,7.35,7.35,0,0,1,2.37,5.92,9.09,9.09,0,0,1-1.11,4.19,18.73,18.73,0,0,1-3.76,4.66L355,172.9v.35H361a10.18,10.18,0,0,0,4.06-.51,5.54,5.54,0,0,0,1.91-2.74h1l-1.89,8.81H348.66Z"/><path class="cls-25" d="M356.22,352.52c1.34,1.37,2.45,2.05,3.32,2.05a3.52,3.52,0,0,0,3.22-1.52,6.27,6.27,0,0,0,1-3.46,7,7,0,0,0-3-5.85,22.14,22.14,0,0,0-5.44-2.6v-.67a14,14,0,0,0,3.62-1.7,4.54,4.54,0,0,0,1.86-3.82,4,4,0,0,0-1.26-3.18,4.94,4.94,0,0,0-6.45.22,10.79,10.79,0,0,0-1.74,2.18l-.88-.49a11.77,11.77,0,0,1,2.8-3.72,9.84,9.84,0,0,1,6.79-2.61,7.44,7.44,0,0,1,4.66,1.51,5.35,5.35,0,0,1,2.19,3.94,6.22,6.22,0,0,1-.77,3.1,5.75,5.75,0,0,1-2.48,2.24v.31a7.11,7.11,0,0,1,3.68,3,8.41,8.41,0,0,1,1.16,4.24,10,10,0,0,1-3.47,7.67,13,13,0,0,1-9.16,3.33,9,9,0,0,1-4.5-1,3,3,0,0,1-1.8-2.7,2.71,2.71,0,0,1,.65-1.71,2.53,2.53,0,0,1,2.11-.8A5.67,5.67,0,0,1,356.22,352.52Z"/><path class="cls-25" d="M349.29,465.05c.12-.18.5-.72,1.13-1.6l4.35-6.2,5.62-7.43,1.7-2.19h3.33v18.15H368v4.66h-2.62v6h-6.05v-6H348.94v-4.76A6.15,6.15,0,0,1,349.29,465.05Zm10.08.73V454.16h-.25L351,465.39v.39Z"/><path class="cls-25" d="M350.69,647.84a2.44,2.44,0,0,1,1.88-.74c1,0,2.37.61,4.07,1.83s3,1.83,4,1.83a4,4,0,0,0,2.86-1.17,4.17,4.17,0,0,0,1.21-3.14,4.77,4.77,0,0,0-1.37-3.44,10.26,10.26,0,0,0-3.09-2.19,16.7,16.7,0,0,0-4.17-1.22c-1-.17-2.63-.32-4.85-.47l4.07-14.46h13.47l-1.8,5.34h-11.6l-.95,3.39a22.66,22.66,0,0,1,7.89,1.41,8.48,8.48,0,0,1,5.69,8.43,9,9,0,0,1-3.4,7.26,12.79,12.79,0,0,1-8.52,2.85,8.37,8.37,0,0,1-4.32-1,3,3,0,0,1-1.73-2.7A2.52,2.52,0,0,1,350.69,647.84Z"/><path class="cls-25" d="M368.48,814.41a13.28,13.28,0,0,0-7.23,3.52,14.51,14.51,0,0,0-3.88,7l.2.14c.49-.16.91-.28,1.27-.37a9.57,9.57,0,0,1,2.15-.24,7.79,7.79,0,0,1,5.38,2.06q2.29,2.07,2.3,6.34,0,4.79-2.76,7.3a9.18,9.18,0,0,1-6.34,2.51,8.78,8.78,0,0,1-6.8-3.16c-1.87-2.1-2.81-5-2.81-8.71a15.68,15.68,0,0,1,5.64-12.47,22,22,0,0,1,12.88-5Zm-11.3,12.33a2.29,2.29,0,0,0-.45,1.22q-.06.51-.12,1.47c-.05.63-.07,1.31-.07,2.05,0,1.44,0,2.7.09,3.77a20.21,20.21,0,0,0,.3,2.79,7.37,7.37,0,0,0,.88,2.49,2,2,0,0,0,1.87,1,2.24,2.24,0,0,0,2.32-1.78,19.17,19.17,0,0,0,.33-4.48c0-3.39-.29-5.73-.86-7a2.89,2.89,0,0,0-2.77-1.91C357.9,826.37,357.4,826.49,357.18,826.74Z"/><path class="cls-25" d="M356.46,993.27h17.4L364,1021.56h-4l8.19-22.24a.59.59,0,0,0-.1-.32h-8a5.13,5.13,0,0,0-2.87.63,5.63,5.63,0,0,0-1.63,2.94h-1Z"/><path class="cls-25" d="M353.25,1187.44a10.9,10.9,0,0,1,3.61-1.82v-.39a7.32,7.32,0,0,1-1.94-1.32,11.59,11.59,0,0,1-2.14-2.17,7.22,7.22,0,0,1-1.12-2.16,7.85,7.85,0,0,1-.27-2.08,6.45,6.45,0,0,1,2.61-5.17,10.52,10.52,0,0,1,6.85-2.12,9.12,9.12,0,0,1,6,1.76,5.33,5.33,0,0,1,2.1,4.18,5,5,0,0,1-2.15,4.13,11.53,11.53,0,0,1-3.27,1.66v.29a22.92,22.92,0,0,1,4.09,3.49,8.19,8.19,0,0,1,1.88,5.34,7.63,7.63,0,0,1-2.78,6.27,10.94,10.94,0,0,1-7.1,2.25,10.57,10.57,0,0,1-5.94-1.79,5.89,5.89,0,0,1-2.74-5.28A6.17,6.17,0,0,1,353.25,1187.44Zm3.29,8.14a3.59,3.59,0,0,0,3.55,2.63,3.46,3.46,0,0,0,2.53-1.08,5,5,0,0,0,1.07-3.64,6.12,6.12,0,0,0-1.61-4.25,21.86,21.86,0,0,0-4-3,16.53,16.53,0,0,0-1.55,2.78,9.35,9.35,0,0,0-.57,3.42A8.64,8.64,0,0,0,356.54,1195.58Zm6.91-16.22a6.94,6.94,0,0,0,.49-2.73,7.45,7.45,0,0,0-.84-3.74,3.08,3.08,0,0,0-2.9-1.46,3.25,3.25,0,0,0-2.44,1,3.46,3.46,0,0,0-.94,2.46,6,6,0,0,0,2.35,4.41,13,13,0,0,0,3.07,2A10.23,10.23,0,0,0,363.45,1179.36Z"/></g></g></svg>