<svg xmlns="http://www.w3.org/2000/svg" viewBox="0 0 682.22 330"><defs><style>.cls-1,.cls-3{font-size:18.49px;font-family:Times-Bold, Times;font-weight:700;}.cls-1{fill:#010000;}.cls-10,.cls-11,.cls-2{fill:none;stroke-miterlimit:10;}.cls-2{stroke:#010000;}.cls-4{font-size:11.38px;font-family:Montserrat-ExtraBold, Montserrat;font-weight:800;}.cls-5{letter-spacing:-0.01em;}.cls-6{letter-spacing:0.02em;}.cls-7{letter-spacing:0em;}.cls-8{letter-spacing:-0.01em;}.cls-9{letter-spacing:-0.02em;}.cls-10{stroke:#75f850;}.cls-10,.cls-11{stroke-linecap:round;stroke-width:5px;}.cls-11{stroke:#646363;}</style></defs><g id="Capa_2" data-name="Capa 2"><g id="Capa_1-2" data-name="Capa 1"><text class="cls-1" transform="translate(37.61 15.5)">600<tspan x="0" y="44.1">500</tspan><tspan x="0" y="88.2">400</tspan><tspan x="0" y="132.3">300</tspan><tspan x="0" y="176.4">200</tspan><tspan x="0" y="220.5">100</tspan><tspan x="18.49" y="264.6">0</tspan></text><polyline class="cls-2" points="71.37 8.35 76.93 8.35 76.93 273.45 662.13 273.45 662.13 279.01"/><line class="cls-2" x1="71.37" y1="54.08" x2="76.93" y2="54.08"/><line class="cls-2" x1="71.37" y1="99.19" x2="76.93" y2="99.19"/><line class="cls-2" x1="71.37" y1="144.3" x2="76.93" y2="144.3"/><line class="cls-2" x1="71.37" y1="189.41" x2="76.93" y2="189.41"/><line class="cls-2" x1="71.37" y1="234.52" x2="76.93" y2="234.52"/><line class="cls-2" x1="76.93" y1="273.45" x2="76.93" y2="279.01"/><line class="cls-2" x1="215.97" y1="273.45" x2="215.97" y2="279.01"/><line class="cls-2" x1="355.01" y1="273.45" x2="355.01" y2="279.01"/><line class="cls-2" x1="494.05" y1="273.45" x2="494.05" y2="279.01"/><line class="cls-2" x1="633.09" y1="273.45" x2="633.09" y2="279.01"/><line class="cls-2" x1="71.37" y1="273.45" x2="76.93" y2="273.45"/><text class="cls-3" transform="translate(57.56 305.42)">2000</text><text class="cls-3" transform="translate(196.6 305.42)">2005</text><text class="cls-3" transform="translate(339.34 305.42)">2010</text><text class="cls-3" transform="translate(476.53 305.42)">2015</text><text class="cls-3" transform="translate(603.62 305.42)">2020 2021</text><text class="cls-4" transform="translate(127.92 54.8)">S<tspan class="cls-5" x="7.36" y="0">P</tspan><tspan x="15.64" y="0">500</tspan><tspan x="0" y="13.66">A</tspan><tspan class="cls-6" x="8.95" y="13.66">r</tspan><tspan x="14.16" y="13.66">tp</tspan><tspan class="cls-7" x="27.15" y="13.66">r</tspan><tspan x="32.17" y="13.66">i</tspan><tspan class="cls-8" x="35.73" y="13.66">c</tspan><tspan class="cls-9" x="42.53" y="13.66">e</tspan><tspan x="49.58" y="13.66">100</tspan></text><line class="cls-10" x1="117.72" y1="64.9" x2="100.11" y2="64.9"/><line class="cls-11" x1="117.72" y1="50.07" x2="100.11" y2="50.07"/><path class="cls-10" d="M81.57,227.11l28.73-.93,24.1-.93L165,217.84l24.1-4.64,31.52-13L250.27,191s19.46-14.83,21.32-17.61,12.05-15.76,12.05-15.76,13.9-50.06,51.91,0c0,0,24.1,23.17,34.29,1.85s36.15-55.61,58.4-38c0,0,13,17.61,36.15-10.2,0,0,60.25-96.4,78.79-33.37,0,0,6.48,33.37,29.66,2.78,0,0,19.46-28.73,92.69-27.8"/><path class="cls-11" d="M86.2,233.6l51.91,10.19s24.1,5.56,58.4-.93,84.35-12.05,84.35-12.05,37.07-13.9,61.17,26.89c0,0,12.05,23.17,30.59-2.79,0,0,13-27.8,31.52-20.39,0,0,24.1,6.49,67.66-11.12a111.61,111.61,0,0,1,45.42-8.34c25,.92,32.44-1.86,50.06-13.91s21.31-7.41,28.73-3.7,17.61,2.78,26-8.35c0,0,20.4-23.17,47.28-26.88"/></g></g></svg>